<svg width="22" height="24" viewBox="0 0 22 24" fill="none" xmlns="http://www.w3.org/2000/svg">
<path d="M1.36875 23.0736H1.46429C1.84642 23.0736 2.22854 23.1692 2.51514 23.2647V15.7176C5.47664 17.2462 8.24708 16.0998 11.2086 14.7623C14.3612 13.3293 16.845 12.2785 19.4244 14.5712C19.711 14.8578 20.0931 14.8578 20.4752 14.7623C20.8574 14.5712 21.0484 14.2847 21.0484 13.9025V2.53416C21.0484 2.24757 20.9529 2.0565 20.7618 1.86544C17.5137 -1.09607 14.3612 -0.0452113 10.4443 1.67437C7.29176 3.10736 4.80792 4.15822 2.22854 1.86544C2.13301 1.86544 0.604492 0.910113 0.604492 2.53416C0.604492 14.5712 0.604492 20.4943 0.604492 23.2647C0.891089 23.1692 1.08215 23.1692 1.36875 23.0736Z" fill="#FDFDFE"/>
</svg>
