<svg width="147" height="111" viewBox="0 0 147 111" fill="none" xmlns="http://www.w3.org/2000/svg">
<path d="M213.961 107.53L213.96 107.531C188.096 127.335 154.268 147.177 119.253 157.365C103.66 161.862 88.5524 163.827 76.4145 162.986C64.1659 162.138 55.4249 158.478 51.8276 152.262L51.8263 152.26C48.3898 146.345 50.2295 139.476 54.9291 131.488C57.2539 127.537 60.2035 123.44 63.3608 119.21C64.1627 118.136 64.9787 117.052 65.8002 115.961C68.1964 112.779 70.6397 109.535 72.9177 106.278C76.4436 101.242 78.1366 96.2019 76.8775 91.9761C75.577 87.6112 71.3746 84.8286 64.8319 83.8096L64.8307 83.8094C60.9122 83.2022 56.4552 83.621 51.7642 84.6078C47.0614 85.597 42.0287 87.1783 36.9307 88.9668C33.495 90.1721 30.0431 91.4651 26.6305 92.7433C19.8247 95.2926 13.1747 97.7835 7.11906 99.4044L7.11127 99.4065C-7.93031 103.52 -21.9511 104.631 -32.5822 102.654C-43.248 100.672 -49.4401 95.8159 -50.9734 89.3635L-50.9737 89.3624C-52.5229 82.8642 -51.0893 75.1499 -46.4962 66.7139C-43.9507 62.2472 -40.9809 57.7218 -37.6006 53.1624L-37.5934 53.1527L-37.5863 53.1429C-36.7472 51.972 -35.8232 50.3217 -34.8689 48.6174C-34.4881 47.9373 -34.1025 47.2487 -33.7156 46.5784C-32.298 44.1229 -30.808 41.8042 -29.2096 40.2799L-25.3176 36.5684L-30.5687 37.7298C-31.9651 38.0386 -33.7588 38.4047 -35.5239 38.7649C-36.1454 38.8917 -36.7634 39.0178 -37.3591 39.1405C-38.496 39.3745 -39.5526 39.5959 -40.3833 39.7828C-41.1011 39.9443 -41.803 40.1115 -42.1909 40.2596C-54.036 44.2096 -65.4871 51.5683 -74.7417 57.8521C-84.0176 64.1212 -94.825 67.2937 -102.312 67.1802C-106.11 67.1227 -108.694 66.2284 -109.952 64.881C-111.045 63.7096 -111.494 61.7635 -109.868 58.4473L-109.867 58.4452C-105.555 49.6151 -96.1349 40.6229 -83.8409 32.4501C-71.5851 24.3027 -56.6349 17.0763 -41.4835 11.7146C-26.3261 6.35084 -11.0378 2.87819 1.89118 2.19014C14.92 1.49677 25.1391 3.65182 30.6259 9.05043C33.7231 12.1054 34.3188 16.035 33.1474 20.7631C31.9606 25.5532 28.998 30.9393 25.2791 36.4972L25.2772 36.5001C23.7541 38.7875 21.9024 41.2049 19.9768 43.7188C18.7517 45.3182 17.4966 46.9567 16.2772 48.6257C13.2476 52.7723 10.441 57.1077 9.57263 60.9509C9.53429 61.1017 9.49594 61.2513 9.45794 61.3996C9.19668 62.4194 8.95256 63.3721 8.85053 64.1338C8.75082 64.8782 8.65348 66.2505 9.75517 67.088C10.2708 67.4799 10.8674 67.5985 11.3793 67.6191C11.8943 67.6398 12.4596 67.567 13.0507 67.4458C14.2327 67.2034 15.8068 66.7045 17.837 65.9881L17.8518 65.9829L17.8664 65.9774C30.0654 61.3843 42.3371 57.1514 54.6138 53.3021C81.1837 45.5898 103.852 45.8094 118.972 51.3606C126.525 54.1334 132.111 58.2028 135.429 63.1878C138.725 68.1401 139.868 74.1197 138.335 80.9415C136.391 89.1829 130.543 97.6456 123.292 106.935C122.544 107.887 121.486 109.103 120.277 110.494C120.162 110.625 120.046 110.759 119.929 110.893C118.589 112.435 117.109 114.148 115.766 115.845C114.43 117.533 113.186 119.258 112.342 120.828C111.919 121.613 111.57 122.407 111.369 123.172C111.172 123.925 111.086 124.77 111.331 125.585L111.353 125.658L111.383 125.729L111.47 125.94L111.72 126.539L112.327 126.767C113.721 127.292 115.503 127.31 117.32 126.99C122.305 126.19 127.571 124.619 132.621 122.434C148.09 116.186 161.81 106.956 173.286 98.151C188.837 86.2622 206.864 83.3653 216.921 86.1684C221.973 87.5768 224.461 90.2057 224.485 93.3249C224.511 96.6902 221.778 101.555 213.961 107.53Z" fill="white" stroke="#191919" stroke-width="3"/>
</svg>
