<svg width="46" height="52" viewBox="0 0 46 52" fill="none" xmlns="http://www.w3.org/2000/svg">
<path d="M37.9243 16.9684C38.8242 19.0253 39.3384 21.275 39.3384 23.7176C39.3384 32.9093 31.8822 40.3656 22.6904 40.3656C13.4986 40.3656 6.04233 32.9093 6.04233 23.7176C6.04233 14.4615 13.4986 7.00523 22.6904 7.00523C25.0687 7.00523 27.3827 7.51946 29.4396 8.41935L33.4891 3.59849C30.2752 1.86298 26.6114 0.898804 22.7547 0.898804C10.2204 0.898804 0.000183105 11.119 0.000183105 23.6533C0.000183105 31.6881 4.24254 38.8229 10.5418 42.8082L7.00651 49.0432C6.68511 49.6217 6.68511 50.393 7.00651 51.0358C7.3279 51.6143 8.03496 52 8.67774 52H36.703C37.4101 52 38.0529 51.6143 38.3743 51.0358C38.6956 50.4573 38.7599 49.6859 38.3743 49.0432L34.839 42.8082C41.2025 38.7587 45.3806 31.6881 45.3806 23.6533C45.3806 19.7966 44.4164 16.1327 42.6809 12.9188L37.9243 16.9684Z" fill="white"/>
</svg>
