<svg width="36" height="35" viewBox="0 0 36 35" fill="none" xmlns="http://www.w3.org/2000/svg">
<path d="M35.2795 7.52055C35.1509 7.13488 34.7652 6.87777 34.3153 6.87777H28.466V1.02845C28.466 0.642782 28.2089 0.257113 27.8232 0.0642782C27.4375 -0.0642782 26.9876 9.5782e-08 26.7305 0.257113L19.7241 7.26343C19.5313 7.45627 19.4027 7.71338 19.4027 7.97049V11.8915L1.40485 31.3678C0.762072 32.0748 0.762072 33.1675 1.40485 33.8746C2.11191 34.6459 3.26892 34.6459 3.97598 33.9389L23.388 15.8767H27.309C27.5661 15.8767 27.8232 15.7482 28.016 15.5553L35.0223 8.549C35.3437 8.35616 35.408 7.90622 35.2795 7.52055Z" fill="white"/>
</svg>
