<svg width="61" height="61" viewBox="0 0 61 61" fill="none" xmlns="http://www.w3.org/2000/svg">
<path d="M45.0477 19.48H59.6577C60.3274 19.48 60.8752 18.9321 60.8752 18.2625V3.6525C60.8752 2.98287 60.3274 2.435 59.6577 2.435H45.0477C44.3781 2.435 43.8302 2.98287 43.8302 3.6525V9.74H36.4035C35.9165 7.3537 34.0415 5.47875 31.6552 4.99175V1.2175C31.6552 0.547875 31.1074 0 30.4377 0C29.7681 0 29.2202 0.547875 29.2202 1.2175V4.99175C26.4443 5.5518 24.3502 8.01115 24.3502 10.9575C24.3502 13.9038 26.4443 16.351 29.2202 16.9233V24.4718C26.8339 24.9587 24.959 26.8337 24.472 29.22H17.0452V23.1325C17.0452 22.4629 16.4974 21.915 15.8277 21.915H1.21774C0.548119 21.915 0.000244141 22.4629 0.000244141 23.1325V37.7425C0.000244141 38.4121 0.548119 38.96 1.21774 38.96H15.8277C16.4974 38.96 17.0452 38.4121 17.0452 37.7425V31.655H24.472C24.959 34.0413 26.8339 35.9162 29.2202 36.4032V43.9517C26.4443 44.5118 24.3502 46.9711 24.3502 49.9175C24.3502 52.8638 26.4443 55.311 29.2202 55.8832V59.6575C29.2202 60.3271 29.7681 60.875 30.4377 60.875C31.1074 60.875 31.6552 60.3271 31.6552 59.6575V55.8832C34.0415 55.3962 35.9165 53.5213 36.4035 51.135H43.8302V57.2225C43.8302 57.8921 44.3781 58.44 45.0477 58.44H59.6577C60.3274 58.44 60.8752 57.8921 60.8752 57.2225V42.6125C60.8752 41.9429 60.3274 41.395 59.6577 41.395H45.0477C44.3781 41.395 43.8302 41.9429 43.8302 42.6125V48.7H36.4035C35.9165 46.3137 34.0415 44.4387 31.6552 43.9517V36.4032C34.4311 35.8432 36.5252 33.3839 36.5252 30.4375C36.5252 27.4911 34.4311 25.044 31.6552 24.4718V16.9233C34.0415 16.4362 35.9165 14.5613 36.4035 12.175H43.8302V18.2625C43.8302 18.9321 44.3781 19.48 45.0477 19.48Z" fill="white"/>
</svg>
